inDegrees=yes
name=ik_lifting_orientations
DataType=double
version=3
OpenSimVersion=4.5-2024-01-10-34fd6af
endheader
time	pelvis_tilt	pelvis_list	pelvis_rotation	pelvis_tx	pelvis_ty	pelvis_tz	hip_flexion_r	hip_adduction_r	hip_rotation_r	knee_angle_r	knee_angle_r_beta	ankle_angle_r	subtalar_angle_r	mtp_angle_r	hip_flexion_l	hip_adduction_l	hip_rotation_l	knee_angle_l	knee_angle_l_beta	ankle_angle_l	subtalar_angle_l	mtp_angle_l	lumbar_extension	lumbar_bending	lumbar_rotation	arm_flex_r	arm_add_r	arm_rot_r	elbow_flex_r	pro_sup_r	wrist_flex_r	wrist_dev_r	arm_flex_l	arm_add_l	arm_rot_l	elbow_flex_l	pro_sup_l	wrist_flex_l	wrist_dev_l
1.08	0.02257715704215265	0.003109456416258465	2.43913502158866	0	0.9399999999999999	0	44.23059080889282	-10.01140991220253	0	59.96882480297089	1.046653441363482	-5.001577628930485	0	0	44.23059080889282	-10.01140991220253	0	59.96882480297089	1.046653441363482	-5.001577628930485	0	0	-0.03113614701765977	-0.003821450371805922	-0.009176118850648467	1.170527325921583	-5.284411395921946	-2.432998127121774	46.47270666942583	45.00759915979781	0	0	0	-12.86879776129227	0	75.06902428874648	45.00759915979781	0	0
1.09	0.02116613035104262	0.003637218140233018	2.439191591857507	0	0.9399999999999999	0	44.23079676250953	-10.01139924166213	0	59.9688313815217	1.046653556180853	-5.001575704172825	0	0	44.23079676250953	-10.01139924166213	0	59.9688313815217	1.046653556180853	-5.001575704172825	0	0	-0.03688262777219884	-0.006180681072663667	-0.009968224283181244	1.181531984766143	-5.300043300860476	-2.569171387877398	47.52219118828253	45.00759353843878	0	0	0	-12.86908988905343	0	75.06900586155284	45.00759353843878	0	0
1.1	0.02384958259637384	0.003102882977843504	2.439646148560302	0	0.9399999999999999	0	44.23578990980099	-10.01122281340808	0	59.96903390371497	1.046657090859934	-5.001546565622971	0	0	44.23578990980099	-10.01122281340808	0	59.96903390371497	1.046657090859934	-5.001546565622971	0	0	-0.03364107994790914	-0.003936009826232816	-0.009993029494150684	1.179893799944441	-5.388461524611412	-2.974116299961829	50.00668423844701	45.00749323587502	0	0	0	-12.87752587148577	0	75.06855908546876	45.00749323587502	0	0
1.11	0.02146156969462148	0.003216090866385247	2.439266203535696	0	0.9399999999999999	0	44.23599565372	-10.01121225788247	0	59.96904047647438	1.046657205576227	-5.001544668003465	0	0	44.23599565372	-10.01121225788247	0	59.96904047647438	1.046657205576227	-5.001544668003465	0	0	-0.03722283040353815	-0.005717998626494645	-0.01024020328757215	1.187085623537445	-5.395496732105349	-3.114364604121901	51.07183783729771	45.00748766114503	0	0	0	-12.87781849506119	0	75.06854067700503	45.00748766114503	0	0
1.14	0.02332300533650098	0.001081971529459209	2.445383439767948	0	0.9399999999999999	0	44.24045739610682	-10.01105504394782	0	59.96922097022531	1.04666035578646	-5.001518734035848	0	0	44.24045739610682	-10.01105504394782	0	59.96922097022531	1.04666035578646	-5.001518734035848	0	0	-0.02981377502543515	-0.001623737949945028	-0.01463311446353298	1.26766305088831	-5.818375542305209	-2.969348416691016	54.8680330134497	45.00739820838872	0	0	0	-12.88535997740669	0	75.06814144983178	45.00739820838872	0	0
1.15	0.02903206657189892	0.003861311172320645	2.441687925998548	0	0.9399999999999999	0	44.245181993861	-10.0108909375902	0	59.96941258647408	1.046663700120901	-5.001491788163827	0	0	44.245181993861	-10.0108909375902	0	59.96941258647408	1.046663700120901	-5.001491788163827	0	0	-0.04383798354293179	-0.0050531682779394	-0.01358382645633955	1.272836113417911	-5.871973416334964	-3.380324724907412	57.33283841320145	45.00730450348367	0	0	0	-12.89338019289821	0	75.06771870227234	45.00730450348367	0	0
1.17	0.0107154578676084	-0.003563680741703146	2.44074908252439	0	0.9399999999999999	0	44.24546255356976	-10.01087677259061	0	59.969421537724	1.046663856349685	-5.001489256288073	0	0	44.24546255356976	-10.01087677259061	0	59.969421537724	1.046663856349685	-5.001489256288073	0	0	-0.01441317675334376	0.0009799268480647728	-0.007079035176548566	1.36615545819265	-6.401099362103104	-3.518475884881208	59.50781328720363	45.00729699068275	0	0	0	-12.89378077363035	0	75.06769359976734	45.00729699068275	0	0
1.18	0.02768120936104815	0.003937362250864961	2.442279192218148	0	0.9399999999999999	0	44.24566443436738	-10.010866607974	0	59.9694279894523	1.046663968953586	-5.001487440737643	0	0	44.24566443436738	-10.010866607974	0	59.9694279894523	1.046663968953586	-5.001487440737643	0	0	-0.04883917537359551	-0.006386480712260128	-0.01553457231040531	1.382835697627905	-6.435265490040369	-3.782024686914502	60.858837969051	45.00729159649766	0	0	0	-12.89406939003954	0	75.06767553688879	45.00729159649766	0	0
1.2	0.002051185801841289	0.0005271794213604746	2.434509453165806	0	0.9399999999999999	0	44.24599992724654	-10.01084969087554	0	59.96943869144194	1.046664155738542	-5.001484418861174	0	0	44.24599992724654	-10.01084969087554	0	59.96943869144194	1.046664155738542	-5.001484418861174	0	0	-0.0003107339362284862	0.000449237250918999	-0.001470515429611646	1.341962246317744	-6.413005397482966	-4.104835345017676	63.06949930653498	45.00728262030497	0	0	0	-12.89454845013053	0	75.06764551934687	45.00728262030497	0	0
1.21	0.02248893031316472	0.00245008306324698	2.439946805730251	0	0.9399999999999999	0	44.24620120459353	-10.01083957705732	0	59.96944512616476	1.046664268045641	-5.001482613833364	0	0	44.24620120459353	-10.01083957705732	0	59.96944512616476	1.046664268045641	-5.001482613833364	0	0	-0.03946174921690768	-0.004724617058999109	-0.01243273066284274	1.354028545080191	-6.394352546411397	-4.253997309158282	64.17937163986205	45.0072772500631	0	0	0	-12.89483634492937	0	75.06762751045618	45.0072772500631	0	0
1.23	0.01070963413086998	-0.0003678524455397873	2.441006808288727	0	0.9399999999999999	0	44.25034037148576	-10.01069577249193	0	59.96961219720605	1.046667183985396	-5.00145901784871	0	0	44.25034037148576	-10.01069577249193	0	59.96961219720605	1.046667183985396	-5.00145901784871	0	0	-0.01173570133066049	0.000711143380740467	-0.009694665674929895	1.413391165801788	-6.789569098885811	-4.189995127844245	67.96039788126376	45.00719511317213	0	0	0	-12.90185589401809	0	75.06725714620242	45.00719511317213	0	0
1.24	-0.004628532332308287	-0.0006402841374844128	2.433094341172847	0	0.9399999999999999	0	44.25053220026532	-10.0106861952873	0	59.96961832042359	1.046667290855704	-5.001457312965198	0	0	44.25053220026532	-10.0106861952873	0	59.96961832042359	1.046667290855704	-5.001457312965198	0	0	0.002819774659468229	0.000715916762468521	-0.001178666757268746	1.420125169628329	-6.908400939964191	-4.721335737838654	67.72677174016161	45.00719001855238	0	0	0	-12.90213058020595	0	75.06723998268497	45.00719001855238	0	0
1.25	0.0231569692892654	0.002058978645244472	2.440357254125015	0	0.9399999999999999	0	44.2507322431672	-10.0106762355877	0	59.96962471699988	1.046667402497021	-5.001455541214408	0	0	44.2507322431672	-10.0106762355877	0	59.96962471699988	1.046667402497021	-5.001455541214408	0	0	-0.0406125617717924	-0.004148813900866085	-0.01363864977058233	1.424496135830848	-6.879137127772735	-4.872474196933524	68.85295049532633	45.00718471746508	0	0	0	-12.90241741143583	0	75.06722208421661	45.00718471746508	0	0
